:FULLY-SPECIFIED
:FORCE-ALL-JOINTS-BE-3DOF
:DEGREES
2854
root -6.07942 13.2709 -28.797 161.778 -66.6783 -160.324
lfemur -64.9875 45.2741 -6.11391
ltibia 76.4615 0 0
lfoot -4.48453 -5.97036 0.00068448
ltoes -28.4395 0 0
rfemur -30.9696 -19.2885 21.7648
rtibia 88.3782 0 0
rfoot -40.9531 -28.1496 0.00023155
rtoes -13.761 0 0
lowerback 15.3362 5.69774 0.601183
upperback -4.44315 7.99086 1.57805
thorax -13.7281 3.73641 -0.730167
lowerneck -2.48884 9.60748 2.1848
upperneck 9.08696 12.5135 2.04468
head 3.36817 6.32041 0.755672
lclavicle -3.35096e-14 -1.91341e-14 -2.05384e-31
lhumerus 5.06334 12.2154 84.2651
lradius 93.6233 0 0
lwrist -19.1408 0 0
lhand -39.6001 28.4453 4.47076e-05
lfingers 7.12502 0 0
lthumb -12.5823 58.0461 4.36569e-05
rclavicle -3.35096e-14 -1.91341e-14 -2.05384e-31
rhumerus -59.1386 50.8332 -111.574
rradius 113.635 0 0
rwrist -84.0759 0 0
rhand 7.6887 -26.3672 0.000132854
rfingers 7.12502 0 0
rthumb 32.9309 -53.3817 0.000264549
2855
root -6.08047 13.2681 -28.7961 161.75 -66.6792 -160.286
lfemur -65.0101 45.2653 -6.11016
ltibia 76.4732 0 0
lfoot -4.5046 -5.96897 0.000765997
ltoes -28.4888 0 0
rfemur -30.9857 -19.282 21.7825
rtibia 88.3856 0 0
rfoot -40.9369 -28.1778 0.000399151
rtoes -13.7751 0 0
lowerback 15.3474 5.69477 0.61905
upperback -4.44669 7.99118 1.58089
thorax -13.737 3.73481 -0.738218
lowerneck -2.49215 9.60828 2.18524
upperneck 9.08603 12.5145 2.0452
head 3.36847 6.32095 0.755971
lclavicle -3.31041e-14 -1.88992e-14 -2.45562e-31
lhumerus 5.06465 12.2176 84.2645
lradius 93.6187 0 0
lwrist -19.1363 0 0
lhand -39.5989 28.4521 4.96284e-05
lfingers 7.12502 0 0
lthumb -12.5811 58.053 4.84642e-05
rclavicle -3.31041e-14 -1.88992e-14 -2.45562e-31
rhumerus -59.1363 50.8415 -111.57
rradius 113.634 0 0
rwrist -84.0629 0 0
rhand 7.68635 -26.3606 0.000146578
rfingers 7.12502 0 0
rthumb 32.9287 -53.3754 0.000308838
2856
root -6.08153 13.2653 -28.7952 161.718 -66.6812 -160.242
lfemur -65.0384 45.2557 -6.10614
ltibia 76.4896 0 0
lfoot -4.52716 -5.9697 0.000853783
ltoes -28.5405 0 0
rfemur -31.0041 -19.2749 21.803
rtibia 88.3965 0 0
rfoot -40.921 -28.2114 0.000556955
rtoes -13.7902 0 0
lowerback 15.3603 5.69134 0.63946
upperback -4.45068 7.99151 1.58409
thorax -13.7471 3.73296 -0.747481
lowerneck -2.49588 9.60918 2.18575
upperneck 9.08558 12.5155 2.04587
head 3.36902 6.32154 0.756351
lclavicle -3.26989e-14 -1.86555e-14 -2.81748e-31
lhumerus 5.06796 12.2206 84.2642
lradius 93.6128 0 0
lwrist -19.1311 0 0
lhand -39.5974 28.4601 5.47262e-05
lfingers 7.12502 0 0
lthumb -12.5797 58.0611 5.34443e-05
rclavicle -3.26989e-14 -1.86555e-14 -2.81748e-31
rhumerus -59.1345 50.8517 -111.566
rradius 113.632 0 0
rwrist -84.0478 0 0
rhand 7.68558 -26.3533 0.000162194
rfingers 7.12502 0 0
rthumb 32.9279 -53.3681 0.000353359
2857
root -6.08258 13.2625 -28.7944 161.681 -66.6846 -160.192
lfemur -65.0731 45.2454 -6.10184
ltibia 76.5113 0 0
lfoot -4.55238 -5.97281 0.000946617
ltoes -28.5947 0 0
rfemur -31.025 -19.2671 21.8264
rtibia 88.4113 0 0
rfoot -40.9054 -28.2509 0.000703559
rtoes -13.8065 0 0
lowerback 15.3752 5.68743 0.662605
upperback -4.45515 7.99186 1.58766
thorax -13.7586 3.73084 -0.758052
lowerneck -2.50004 9.61017 2.18635
upperneck 9.08569 12.5167 2.04669
head 3.36983 6.32218 0.75682
lclavicle -3.22971e-14 -1.84034e-14 -3.13303e-31
lhumerus 5.07349 12.2246 84.2642
lradius 93.6055 0 0
lwrist -19.1251 0 0
lhand -39.5957 28.4693 5.99147e-05
lfingers 7.12502 0 0
lthumb -12.578 58.0705 5.85127e-05
rclavicle -3.22971e-14 -1.84034e-14 -3.13303e-31
rhumerus -59.1331 50.8636 -111.563
rradius 113.63 0 0
rwrist -84.0307 0 0
rhand 7.6866 -26.3451 0.0001795
rfingers 7.12502 0 0
rthumb 32.9289 -53.3597 0.00039751
2858
root -6.08364 13.2597 -28.7935 161.64 -66.6894 -160.134
lfemur -65.1147 45.2344 -6.09726
ltibia 76.5388 0 0
lfoot -4.58043 -5.97857 0.00104271
ltoes -28.6511 0 0
rfemur -31.0484 -19.2587 21.8529
rtibia 88.4304 0 0
rfoot -40.8904 -28.2967 0.000837529
rtoes -13.8239 0 0
lowerback 15.392 5.683 0.688675
upperback -4.46013 7.99221 1.59163
thorax -13.7715 3.72843 -0.770025
lowerneck -2.50466 9.61126 2.18704
upperneck 9.08643 12.5179 2.04768
head 3.37094 6.32288 0.757385
lclavicle -3.19015e-14 -1.81436e-14 -3.39621e-31
lhumerus 5.0815 12.2295 84.2646
lradius 93.5964 0 0
lwrist -19.1184 0 0
lhand -39.5937 28.4799 6.50808e-05
lfingers 7.12502 0 0
lthumb -12.5761 58.0811 6.35591e-05
rclavicle -3.19015e-14 -1.81436e-14 -3.39621e-31
rhumerus -59.1324 50.8777 -111.56
rradius 113.627 0 0
rwrist -84.0113 0 0
rhand 7.68964 -26.3361 0.000198157
rfingers 7.12502 0 0
rthumb 32.9318 -53.35 0.00044053
